<?xml version="1.0" encoding="utf-8"?>
<!-- Svg Vector Icons : http://www.onlinewebfonts.com/icon -->
<!DOCTYPE svg PUBLIC "-//W3C//DTD SVG 1.1//EN" "http://www.w3.org/Graphics/SVG/1.1/DTD/svg11.dtd">
<svg version="1.1" xmlns="http://www.w3.org/2000/svg" xmlns:xlink="http://www.w3.org/1999/xlink" x="0px" y="0px" viewBox="0 0 1000 1000" enable-background="new 0 0 1000 1000" xml:space="preserve">
<metadata> Svg Vector Icons : http://www.onlinewebfonts.com/icon </metadata>
<g  fill="#ed1c24"><path d="M700.9,347.2c-12.4-0.5-24.9,3.6-34.4,13.1L454.1,572.9L333.4,452.2c-9.5-9.5-22-13.6-34.3-13.1c-11.1,0.5-22.1,4.6-30.7,13.1c-8.5,8.5-12.6,19.5-13.1,30.7c-0.5,12.3,3.7,24.8,13.1,34.3l153.1,153.1c9,8.9,20.8,13.4,32.5,13.4c11.8,0,23.5-4.5,32.5-13.4l245-245c9.5-9.5,13.6-22,13.1-34.3c-0.5-11.1-4.6-22.2-13.1-30.7C722.9,351.9,712,347.6,700.9,347.2L700.9,347.2z M500,10C229.4,10,10,229.4,10,500c0,270.6,219.4,490,490,490c270.6,0,490-219.4,490-490C990,229.4,770.6,10,500,10L500,10z M500,898.1c-219.5,0-398.1-178.7-398.1-398.1c0-219.5,178.6-398.1,398.1-398.1c219.5,0,398.1,178.6,398.1,398.1C898.1,719.5,719.5,898.1,500,898.1L500,898.1z"/></g>
</svg>