<?xml version="1.0" encoding="utf-8"?>
<!-- Svg Vector Icons : http://www.onlinewebfonts.com/icon -->
<!DOCTYPE svg PUBLIC "-//W3C//DTD SVG 1.1//EN" "http://www.w3.org/Graphics/SVG/1.1/DTD/svg11.dtd">
<svg version="1.1" xmlns="http://www.w3.org/2000/svg" xmlns:xlink="http://www.w3.org/1999/xlink" x="0px" y="0px" viewBox="0 0 1000 1000" enable-background="new 0 0 1000 1000" xml:space="preserve">
<metadata> Svg Vector Icons : http://www.onlinewebfonts.com/icon </metadata>
<g fill="#ed1c24"><g transform="translate(0.000000,512.000000) scale(0.100000,-0.100000)"><path d="M4622.1,5007.7c-800.3-99.6-1483.9-427-2046.8-982.2c-505.5-497.8-832.9-1102.8-980.3-1813.2c-59.4-287.2-72.8-850.1-26.8-1173.7C1767.3-380.1,2784-2260.3,4200.8-3838c170.4-191.5,511.2-591.6,727.6-859.7l67-82.3l317.8,359.9c176.2,199.1,425.1,472.9,553.3,610.8c771.6,821.4,1409.2,1732.8,1876.4,2680.5c911.4,1847.6,953.5,3377.5,124.5,4614.3c-520.8,777.4-1340.3,1317.3-2249.7,1483.9C5365,5015.4,4849.9,5034.6,4622.1,5007.7z M5382.2,3073.9c509.3-128.3,924.8-517,1099-1032c53.6-160.8,63.2-214.4,70.8-432.7c9.6-308.3-32.5-509.3-158.9-765.9c-158.9-317.8-390.6-549.5-708.4-706.5C5472.2,31.5,5336.2-4.8,5096.9-22.1C4294.6-73.8,3582.4,498.7,3454.1,1299c-49.8,302.5,5.7,675.9,135.9,938.2C3930.9,2916.9,4656.5,3255.8,5382.2,3073.9z"/></g></g>
</svg>